<svg width="28" height="28" viewBox="0 0 28 28" fill="none" xmlns="http://www.w3.org/2000/svg">
<path d="M14.2012 27.75C21.7305 27.75 27.9268 21.5537 27.9268 14.0244C27.9268 6.49512 21.7305 0.28418 14.2012 0.28418C6.67188 0.28418 0.475586 6.49512 0.475586 14.0244C0.475586 21.5537 6.67188 27.75 14.2012 27.75ZM14.2012 26.2705C7.41895 26.2705 1.95508 20.792 1.95508 14.0244C1.95508 7.24219 7.41895 1.76367 14.2012 1.76367C20.9834 1.76367 26.4619 7.24219 26.4619 14.0244C26.4619 20.792 20.9834 26.2705 14.2012 26.2705ZM8.7959 16.8955C8.7959 17.3936 9.13281 17.7012 9.66016 17.7012H13.5859V20.748C13.5859 21.8613 13.9961 22.8281 14.1865 22.8281C14.3916 22.8281 14.8164 21.8613 14.8164 20.748V17.7012H18.7275C19.2549 17.7012 19.6064 17.3936 19.6064 16.8955C19.6064 15.2988 18.3467 13.7168 16.3691 13.043L16.1348 9.52734C16.9551 9.04395 17.8047 8.39941 18.2148 7.85742C18.4053 7.62305 18.4932 7.38867 18.4932 7.18359C18.4932 6.81738 18.2295 6.56836 17.79 6.56836H10.6123C10.1875 6.56836 9.89453 6.81738 9.89453 7.18359C9.89453 7.40332 10.0264 7.65234 10.2314 7.90137C10.6416 8.42871 11.4766 9.05859 12.2676 9.52734L12.0332 13.043C10.041 13.7168 8.7959 15.2988 8.7959 16.8955Z" fill="white"/>
</svg>
