<svg xmlns="http://www.w3.org/2000/svg" width="28" height="16" viewBox="0 0 28 16">
    <g fill="none" fill-opacity=".3" fill-rule="evenodd">
        <g fill="#3C3C43">
            <g>
                <g>
                    <path d="M26 0c1.105 0 2 .895 2 2v12c0 1.105-.895 2-2 2H2c-1.105 0-2-.895-2-2V2C0 .895.895 0 2 0h24zM8.95 4C6.54 4 5 5.729 5 8.43v.011c0 2.73 1.523 4.436 3.973 4.436 2.256 0 3.697-1.4 3.697-3.586V8.236H9.16v1.155h2.027l-.005.175c-.018 1.202-.897 2.004-2.186 2.004-1.506 0-2.455-1.2-2.455-3.14v-.012c0-1.91.932-3.111 2.408-3.111 1.084 0 1.858.539 2.133 1.464l.018.06h1.5l-.006-.06C12.307 5.12 10.9 4 8.949 4zm6.984.21h-1.512v8.456h1.512V4.211zm7.476 0h-5.39v8.456h1.511V9.215h3.545v-1.23h-3.545V5.481h3.88V4.211z" transform="translate(-127 -325) translate(84 303) translate(43 22)"/>
                </g>
            </g>
        </g>
    </g>
</svg>
